<svg width="19" height="19" viewBox="0 0 19 19" fill="none" xmlns="http://www.w3.org/2000/svg">
<path d="M9.375 0C7.5208 0 5.70824 0.549834 4.16653 1.57997C2.62482 2.61011 1.42321 4.07429 0.713633 5.78734C0.00406189 7.5004 -0.181594 9.3854 0.180142 11.204C0.541879 13.0225 1.43476 14.693 2.74588 16.0041C4.057 17.3152 5.72746 18.2081 7.54603 18.5699C9.3646 18.9316 11.2496 18.7459 12.9627 18.0364C14.6757 17.3268 16.1399 16.1252 17.17 14.5835C18.2002 13.0418 18.75 11.2292 18.75 9.375C18.7473 6.88943 17.7587 4.50645 16.0011 2.74889C14.2436 0.991327 11.8606 0.00272962 9.375 0ZM9.375 18C7.66914 18 6.00158 17.4942 4.58321 16.5464C3.16484 15.5987 2.05935 14.2517 1.40654 12.6756C0.753737 11.0996 0.582934 9.36543 0.915731 7.69235C1.24853 6.01926 2.06998 4.48243 3.27621 3.2762C4.48244 2.06998 6.01926 1.24852 7.69235 0.915727C9.36544 0.582929 11.0996 0.753733 12.6756 1.40654C14.2517 2.05934 15.5987 3.16483 16.5464 4.58321C17.4942 6.00158 18 7.66914 18 9.375C17.9975 11.6617 17.088 13.8541 15.4711 15.4711C13.8541 17.088 11.6617 17.9975 9.375 18ZM12.675 11.8509C12.1554 12.5433 11.4312 13.0547 10.6048 13.3126C9.77847 13.5706 8.89192 13.562 8.07071 13.2881C7.24951 13.0143 6.53528 12.489 6.02916 11.7867C5.52305 11.0844 5.25071 10.2407 5.25071 9.375C5.25071 8.50933 5.52305 7.66561 6.02916 6.96331C6.53528 6.26101 7.24951 5.73573 8.07071 5.46187C8.89192 5.188 9.77847 5.17943 10.6048 5.43737C11.4312 5.69531 12.1554 6.20668 12.675 6.89906C12.7046 6.93846 12.7262 6.9833 12.7385 7.03103C12.7507 7.07876 12.7535 7.12844 12.7466 7.17723C12.7396 7.22603 12.7232 7.27298 12.6981 7.31541C12.673 7.35784 12.6399 7.39492 12.6005 7.42453C12.5611 7.45414 12.5162 7.4757 12.4685 7.48798C12.4208 7.50026 12.3711 7.50302 12.3223 7.49609C12.2735 7.48917 12.2266 7.47271 12.1841 7.44764C12.1417 7.42258 12.1046 7.3894 12.075 7.35C11.65 6.78332 11.0575 6.36472 10.3813 6.15352C9.70519 5.94231 8.97974 5.94919 8.30774 6.17319C7.63573 6.3972 7.05124 6.82696 6.63706 7.4016C6.22288 7.97625 6 8.66665 6 9.375C6 10.0834 6.22288 10.7738 6.63706 11.3484C7.05124 11.923 7.63573 12.3528 8.30774 12.5768C8.97974 12.8008 9.70519 12.8077 10.3813 12.5965C11.0575 12.3853 11.65 11.9667 12.075 11.4C12.1348 11.3204 12.2238 11.2679 12.3223 11.2539C12.4208 11.2399 12.5209 11.2657 12.6005 11.3255C12.68 11.3853 12.7326 11.4742 12.7466 11.5728C12.7605 11.6713 12.7348 11.7714 12.675 11.8509Z" fill="#DEC5B1"/>
</svg>
