<svg width="24" height="24" viewBox="0 0 24 24" fill="none" xmlns="http://www.w3.org/2000/svg">
<path d="M5 14.584H5.75C5.74992 14.4381 5.70732 14.2955 5.62739 14.1734C5.54746 14.0514 5.43369 13.9553 5.3 13.897L5 14.584ZM19 14.584L18.7 13.897C18.5663 13.9553 18.4525 14.0514 18.3726 14.1734C18.2927 14.2955 18.2501 14.4381 18.25 14.584H19ZM15.75 7C15.75 7.19891 15.829 7.38968 15.9697 7.53033C16.1103 7.67098 16.3011 7.75 16.5 7.75C16.6989 7.75 16.8897 7.67098 17.0303 7.53033C17.171 7.38968 17.25 7.19891 17.25 7H15.75ZM6.75 7C6.75 7.19891 6.82902 7.38968 6.96967 7.53033C7.11032 7.67098 7.30109 7.75 7.5 7.75C7.69891 7.75 7.88968 7.67098 8.03033 7.53033C8.17098 7.38968 8.25 7.19891 8.25 7H6.75ZM7 4.25C5.47501 4.25 4.01247 4.8558 2.93414 5.93414C1.8558 7.01247 1.25 8.47501 1.25 10H2.75C2.75 8.87283 3.19777 7.79183 3.9948 6.9948C4.79183 6.19777 5.87283 5.75 7 5.75V4.25ZM17 5.75C18.1272 5.75 19.2082 6.19777 20.0052 6.9948C20.8022 7.79183 21.25 8.87283 21.25 10H22.75C22.75 8.47501 22.1442 7.01247 21.0659 5.93414C19.9875 4.8558 18.525 4.25 17 4.25V5.75ZM15 21.25H9V22.75H15V21.25ZM9 21.25C8.036 21.25 7.388 21.248 6.905 21.183C6.444 21.121 6.246 21.014 6.116 20.883L5.056 21.945C5.511 22.4 6.078 22.585 6.706 22.67C7.312 22.752 8.078 22.75 9 22.75V21.25ZM4.25 18C4.25 18.922 4.248 19.688 4.33 20.294C4.414 20.922 4.6 21.489 5.055 21.944L6.116 20.884C5.986 20.754 5.879 20.556 5.816 20.094C5.752 19.612 5.75 18.964 5.75 18H4.25ZM18.25 18C18.25 18.964 18.248 19.612 18.183 20.095C18.121 20.556 18.014 20.754 17.883 20.884L18.945 21.944C19.4 21.489 19.585 20.922 19.67 20.294C19.752 19.688 19.75 18.922 19.75 18H18.25ZM15 22.75C15.922 22.75 16.688 22.752 17.294 22.67C17.922 22.586 18.49 22.4 18.945 21.944L17.884 20.884C17.754 21.014 17.556 21.121 17.094 21.184C16.612 21.248 15.964 21.25 15 21.25V22.75ZM7 5.75C7.214 5.75 7.423 5.766 7.628 5.796L7.847 4.312C7.56656 4.27063 7.28347 4.24991 7 4.25V5.75ZM12 1.25C10.9028 1.25 9.8331 1.59365 8.94117 2.23268C8.04925 2.87172 7.37986 3.77406 7.027 4.813L8.447 5.295C8.69916 4.55281 9.17745 3.90823 9.81469 3.45178C10.4519 2.99532 11.2161 2.74991 12 2.75V1.25ZM7.027 4.813C6.84303 5.3564 6.74945 5.9263 6.75 6.5H8.25C8.25 6.077 8.32 5.672 8.448 5.295L7.027 4.813ZM17 4.25C16.713 4.25 16.43 4.271 16.153 4.312L16.373 5.796C16.5806 5.76535 16.7902 5.74998 17 5.75V4.25ZM12 2.75C12.7837 2.75012 13.5477 2.99562 14.1847 3.45207C14.8218 3.90851 15.2999 4.55297 15.552 5.295L16.972 4.813C16.6192 3.77422 15.95 2.872 15.0582 2.23298C14.1665 1.59395 13.0971 1.25021 12 1.25V2.75ZM15.552 5.295C15.68 5.672 15.75 6.077 15.75 6.5H17.25C17.25 5.911 17.152 5.344 16.972 4.813L15.553 5.295H15.552ZM5.75 18V14.584H4.25V18H5.75ZM5.3 13.897C4.54188 13.566 3.89681 13.021 3.44386 12.3288C2.99092 11.6366 2.74978 10.8272 2.75 10H1.25C1.24993 11.119 1.57628 12.2137 2.18908 13.1499C2.80188 14.0862 3.6745 14.8233 4.7 15.271L5.3 13.897ZM18.25 14.584V18H19.75V14.584H18.25ZM21.25 10C21.2502 10.8272 21.0091 11.6366 20.5561 12.3288C20.1032 13.021 19.4581 13.566 18.7 13.897L19.3 15.271C20.3255 14.8233 21.1981 14.0862 21.8109 13.1499C22.4237 12.2137 22.7501 11.119 22.75 10H21.25ZM15.75 6.5V7H17.25V6.5H15.75ZM6.75 6.5V7H8.25V6.5H6.75Z" fill="#1F1711"/>
<path opacity="0.7" d="M12 9.99507L11.481 10.5371C11.6206 10.6709 11.8066 10.7456 12 10.7456C12.1934 10.7456 12.3794 10.6709 12.519 10.5371L12 9.99507ZM11.486 13.0641C11.069 12.7581 10.608 12.3741 10.259 11.9721C9.891 11.5461 9.75 11.2151 9.75 11.0001H8.25C8.25 11.7701 8.691 12.4511 9.125 12.9531C9.578 13.4771 10.139 13.9361 10.599 14.2731L11.486 13.0641ZM9.75 11.0001C9.75 10.4241 10.013 10.1741 10.242 10.0931C10.492 10.0051 10.956 10.0331 11.482 10.5371L12.519 9.45307C11.694 8.66307 10.658 8.35807 9.746 8.67807C8.812 9.00507 8.25 9.90307 8.25 11.0001H9.75ZM13.4 14.2741C13.86 13.9361 14.422 13.4771 14.875 12.9531C15.309 12.4511 15.75 11.7701 15.75 11.0001H14.25C14.25 11.2151 14.109 11.5461 13.74 11.9721C13.392 12.3751 12.931 12.7581 12.514 13.0641L13.401 14.2741H13.4ZM15.75 11.0001C15.75 9.90307 15.187 9.00507 14.254 8.67807C13.342 8.35807 12.306 8.66407 11.481 9.45307L12.519 10.5371C13.044 10.0331 13.508 10.0051 13.759 10.0931C13.987 10.1731 14.25 10.4241 14.25 11.0001H15.75ZM10.6 14.2741C10.968 14.5441 11.382 14.8811 12 14.8811V13.3811C11.976 13.3811 11.96 13.3811 11.906 13.3521C11.76 13.2651 11.6197 13.1689 11.486 13.0641L10.599 14.2741H10.6ZM12.514 13.0641C12.3803 13.1689 12.24 13.2651 12.094 13.3521C12.04 13.3811 12.024 13.3811 12 13.3811V14.8811C12.618 14.8811 13.032 14.5441 13.4 14.2741L12.514 13.0641Z" fill="#1F1711"/>
<path opacity="0.7" d="M5 18H19" stroke="#1F1711" stroke-width="1.5" stroke-linecap="round" stroke-linejoin="round"/>
</svg>
